<?xml version="1.0" encoding="UTF-8" standalone="no"?><!DOCTYPE svg PUBLIC "-//W3C//DTD SVG 1.1//EN" "http://www.w3.org/Graphics/SVG/1.1/DTD/svg11.dtd"><svg width="100%" height="100%" viewBox="0 0 50 50" version="1.1" xmlns="http://www.w3.org/2000/svg" xmlns:xlink="http://www.w3.org/1999/xlink" xml:space="preserve" xmlns:serif="http://www.serif.com/" style="fill-rule:evenodd;clip-rule:evenodd;stroke-linejoin:round;stroke-miterlimit:1.41421;"><g><g><path d="M36.988,12.042l-1.17,31.28c-0.007,0.202 -0.203,0.385 -0.412,0.385l-20.812,0c-0.205,0 -0.405,-0.187 -0.412,-0.385l-1.17,-31.28c-0.044,-1.185 -1.068,-2.11 -2.287,-2.067c-1.219,0.043 -2.171,1.038 -2.126,2.223l1.17,31.28c0.093,2.506 2.243,4.522 4.825,4.522l20.812,0c2.586,0 4.731,-2.011 4.825,-4.522l1.17,-31.28c0.045,-1.185 -0.907,-2.18 -2.126,-2.223c-1.219,-0.043 -2.243,0.882 -2.287,2.067Z" style="fill-rule:nonzero;"/><path d="M23.423,18.253l0,20.854c0,0.847 0.706,1.533 1.577,1.533c0.871,0 1.577,-0.686 1.577,-1.533l0,-20.854c0,-0.847 -0.706,-1.533 -1.577,-1.533c-0.871,0 -1.577,0.686 -1.577,1.533Z" style="fill-rule:nonzero;"/><path d="M16.168,18.298l0.631,20.854c0.026,0.846 0.752,1.512 1.623,1.487c0.871,-0.025 1.556,-0.731 1.53,-1.577l-0.631,-20.854c-0.025,-0.846 -0.752,-1.512 -1.622,-1.487c-0.871,0.025 -1.556,0.731 -1.531,1.577Z" style="fill-rule:nonzero;"/><path d="M30.679,18.208l-0.631,20.854c-0.026,0.846 0.659,1.552 1.53,1.577c0.871,0.025 1.597,-0.641 1.623,-1.487l0.631,-20.854c0.025,-0.846 -0.66,-1.552 -1.531,-1.577c-0.87,-0.025 -1.597,0.641 -1.622,1.487Z" style="fill-rule:nonzero;"/><path d="M9.228,12.733l31.544,0c1.219,0 2.208,-0.961 2.208,-2.146c0,-1.186 -0.989,-2.147 -2.208,-2.147l-31.544,0c-1.219,0 -2.208,0.961 -2.208,2.147c0,1.185 0.989,2.146 2.208,2.146Z" style="fill-rule:nonzero;"/><path d="M20.833,9.574l0.65,-2.525c0.092,-0.36 0.612,-0.756 0.991,-0.756l5.052,0c0.379,0 0.898,0.395 0.991,0.756l0.65,2.525l4.284,-1.041l-0.649,-2.526c-0.585,-2.271 -2.87,-4.007 -5.276,-4.007l-5.052,0c-2.406,0 -4.692,1.737 -5.276,4.007l-0.649,2.526l4.284,1.041Z" style="fill-rule:nonzero;"/></g></g></svg>
